<?xml version="1.0" standalone="no"?><!DOCTYPE svg PUBLIC "-//W3C//DTD SVG 1.1//EN" "http://www.w3.org/Graphics/SVG/1.1/DTD/svg11.dtd"><svg class="icon" width="200px" height="200.00px" viewBox="0 0 1024 1024" version="1.1" xmlns="http://www.w3.org/2000/svg"><path fill="#333333" d="M512 235.25c18.11 0 35.29 3.81 47.16 10.45l230.03 128.74c3.01 1.55 5.75 3.58 8.12 6.01-2.36 2.43-5.1 4.46-8.12 6.01L559.16 515.28c-11.87 6.65-29.06 10.46-47.16 10.46-18.11 0-35.29-3.8-47.16-10.45L234.81 386.54a31.468 31.468 0 0 1-8.12-6.01 31.3 31.3 0 0 1 8.12-6.01l230.03-128.78c11.87-6.64 29.06-10.45 47.16-10.45m0-33.96c-23.07 0-46.14 4.92-63.75 14.77l-230 128.72c-35.22 19.7-35.22 51.65 0 71.35l230 128.74c17.61 9.85 40.68 14.78 63.75 14.78s46.14-4.93 63.75-14.78l230-128.74c35.22-19.7 35.22-51.65 0-71.35l-230-128.75c-17.61-9.85-40.68-14.77-63.75-14.77v0.03zM805.75 607.89l-116.6-65.28a40.785 40.785 0 0 0-39.82 0l-57.02 31.92c-22.01 12.32-50.55 19.1-80.33 19.1-29.79 0-58.32-6.79-80.33-19.1l-57.03-31.92a40.785 40.785 0 0 0-39.82 0l-116.55 65.28c-35.06 19.62-35.06 51.73 0 71.36l230 128.74c35.06 19.62 92.44 19.62 127.49 0l230.01-128.74c35.09-19.63 35.09-51.74 0-71.36z" /></svg>