<?xml version="1.0" standalone="no"?><!DOCTYPE svg PUBLIC "-//W3C//DTD SVG 1.1//EN" "http://www.w3.org/Graphics/SVG/1.1/DTD/svg11.dtd"><svg class="icon" width="200px" height="200.00px" viewBox="0 0 1024 1024" version="1.1" xmlns="http://www.w3.org/2000/svg"><path fill="#333333" d="M416.91763302 548.40215537L73.74444364 356.32069159c-52.53724972-29.39509396-52.53724972-77.06196465 0-106.47276951l343.15747847-192.08146378c52.53724972-29.39509396 137.69032788-29.39509396 190.21186668 0l343.17318939 192.08146378c52.53724972 29.39509396 52.53724972 77.06196465 0 106.47276951L607.12949969 548.40215537c-52.52153879 29.39509396-137.69032788 29.39509396-190.21186667 0z"  /><path fill="#333333" d="M512.03142179 988.29164533c-38.69594677 0-77.34476085-8.42104242-107.493978-25.27883814l-343.17318939-192.14430737c-33.76272418-18.88450185-52.3644298-45.6401646-52.36442979-75.33376565 0-29.69360106 18.60170564-56.38642021 52.36442979-75.33376566l204.85442553-114.61101572c12.20736932-6.83424151 27.65118406-2.46661132 34.48542555 9.74075803 6.83424151 12.20736932 2.46661132 27.65118406-9.74075801 34.48542554l-204.85442551 114.67385934c-16.54357774 9.22229831-26.44144475 20.84836434-26.44144477 31.07616026s9.89786702 21.86957285 26.44144477 31.10758207l343.18890028 192.09717467c44.85461958 25.13744005 120.69113405 25.13744005 165.49862092 0l343.1889003-192.09717467c16.54357774-9.25372012 26.44144475-20.89549705 26.44144474-31.10758207s-9.89786702-21.79101835-26.44144474-31.10758207l-192.6941889-107.82390689c-12.20736932-6.83424151-16.57499953-22.26234534-9.74075802-34.48542558 6.83424151-12.20736932 22.26234534-16.57499953 34.48542557-9.74075803l192.64705618 107.83961782c33.76272418 18.88450185 52.3644298 45.6401646 52.36442981 75.33376565 0 29.69360106-18.57028384 56.44926381-52.3172971 75.28663296l-343.17318938 192.14430737c-30.19634986 16.85779573-68.84516393 25.27883815-107.52539983 25.27883814z"  /></svg>