<?xml version="1.0" standalone="no"?><!DOCTYPE svg PUBLIC "-//W3C//DTD SVG 1.1//EN" "http://www.w3.org/Graphics/SVG/1.1/DTD/svg11.dtd"><svg t="1600265219864" class="icon" viewBox="0 0 1024 1024" version="1.1" xmlns="http://www.w3.org/2000/svg" p-id="3677" xmlns:xlink="http://www.w3.org/1999/xlink" width="200" height="200"><defs><style type="text/css"></style></defs><path d="M0 0h1024v1024H0z" fill="#8a8a8a" fill-opacity="0" p-id="3678"></path><path d="M608 960v64h-192v-64h192zM512 192a288 288 0 0 1 160 527.488V832a64 64 0 0 1-64 64h-192a64 64 0 0 1-64-64v-112.448A288 288 0 0 1 512 192z m96 576h-192v64h192v-64z m224.832-139.712l110.848 64-32 55.424-110.848-64 32-55.424z m-641.664 0l32 55.424-110.848 64-32-55.424 110.848-64zM512 256a224 224 0 0 0-135.68 402.24l11.328 8.064 28.416 19.072L416 704h192v-18.688l28.416-19.008A224 224 0 0 0 512 256z m480 160v64h-128v-64h128z m-832 0v64h-128v-64h128z m668.8-298.048l45.248 45.248-90.496 90.496-45.248-45.248 90.496-90.496z m-610.944-9.344L308.352 199.04l-45.248 45.248-90.496-90.496 45.248-45.248zM544 0v128h-64V0h64z" fill="#8a8a8a" fill-opacity=".65" p-id="3679"></path></svg>