<?xml version="1.0" standalone="no"?><!DOCTYPE svg PUBLIC "-//W3C//DTD SVG 1.1//EN" "http://www.w3.org/Graphics/SVG/1.1/DTD/svg11.dtd"><svg t="1600265515563" class="icon" viewBox="0 0 1024 1024" version="1.1" xmlns="http://www.w3.org/2000/svg" p-id="6954" xmlns:xlink="http://www.w3.org/1999/xlink" width="200" height="200"><defs><style type="text/css"></style></defs><path d="M714.386286 449.097143c26.580114-34.157714 40.184686-78.175086 40.184685-130.545372 0-64.482743-21.416229-115.902171-63.678171-152.839314-42.730057-38.6048-98.084571-57.270857-169.384229-57.270857-81.92 0-143.945143 22.645029-189.674057 69.251657-31.729371 31.861029-51.829029 70.524343-61.527771 118.301257a44.075886 44.075886 0 1 0 86.528 16.896c5.163886-30.149486 15.36-55.515429 30.325028-75.410285C412.525714 200.4992 454.948571 181.394286 513.009371 181.394286c46.606629 0 83.456 13.165714 109.524115 39.292343 25.453714 26.711771 38.224457 62.244571 38.224457 105.925485 0 32.6656-11.702857 63.458743-35.6352 94.120229l-20.245943 22.703543q-107.505371 95.5392-127.7952 139.190857c-8.777143 16.413257-14.848 35.108571-18.2272 56.656457-4.242286 27.165257 14.804114 49.546971 42.305829 49.546971h6.129371c20.757943 0 38.853486-17.013029 42.525257-37.449142a162.377143 162.377143 0 0 1 17.554286-50.000458c11.819886-23.259429 29.973943-45.714286 52.253257-64.482742C672.914286 490.349714 704.863086 460.712229 714.386286 449.097143zM570.250971 849.071543c0-19.675429-6.261029-35.108571-19.1488-47.074743-12.814629-12.668343-29.140114-18.666057-50.219885-18.666057-20.231314 0-36.483657 6.070857-48.274286 18.0224-13.341257 12.478171-19.587657 27.867429-19.587657 47.528228 0 18.783086 6.378057 34.318629 19.529143 47.455086 25.570743 25.570743 71.255771 25.365943 97.514057 0.892343 13.443657-13.502171 20.187429-29.3888 20.187428-48.157257z" p-id="6955"></path></svg>